# xmcd
#
# Track frame offsets:
#	150
#	14851
#	32102
#	43953
#	55354
#	75830
#	92931
#	105907
#	117833
#	131109
#
# Disc length: 1911 seconds
#
# Revision: 1
# Processed by: cddbd v1.5.2PL0 Copyright (c) Steve Scherf et al.
# Submitted via: audiograbber 1.83.01
#
DISCID=8307750a
DTITLE=Conway Twitty - Rest Your Love On Me
DYEAR=1980
DGENRE=Country
TTITLE0=I Still Believe In Waltzes
TTITLE1=Once Is Not Enough Kind Of Love
TTITLE2=Hero For A Day
TTITLE3=I Am The Dreamer (You Are The Dream)
TTITLE4=Rest Your Love On Me
TTITLE5=For All The Right Reasons
TTITLE6=We're Gonna Try It Tonight
TTITLE7=You'll Be Back (Every Night In My Dreams)
TTITLE8=A Bridge That Just Won't Burn
TTITLE9=When The Feelin's Right
EXTD=
EXTT0=
EXTT1=
EXTT2=
EXTT3=
EXTT4=
EXTT5=
EXTT6=
EXTT7=
EXTT8=
EXTT9=
PLAYORDER=
